<?xml version="1.0" encoding="UTF-8"?>
<!DOCTYPE svg PUBLIC "-//W3C//DTD SVG 1.1//EN" "http://www.w3.org/Graphics/SVG/1.1/DTD/svg11.dtd">
<svg xmlns="http://www.w3.org/2000/svg" xml:space="preserve" width="100%" height="100%" version="1.1" style="shape-rendering:geometricPrecision; text-rendering:geometricPrecision; image-rendering:optimizeQuality; fill-rule:evenodd; clip-rule:evenodd"
viewBox="0 0 7937.5 1455.2"
 xmlns:xlink="http://www.w3.org/1999/xlink"
 xmlns:xodm="http://www.corel.com/coreldraw/odm/2003">
 <defs>
  <style type="text/css">
   <![CDATA[
    .fil1 {fill:url(#id0);fill-rule:nonzero}
    .fil0 {fill:url(#id1);fill-rule:nonzero}
   ]]>
  </style>
  <linearGradient id="id0" gradientUnits="userSpaceOnUse" x1="5199.33" y1="740.83" x2="5199.06" y2="-3783.55">
   <stop offset="0" style="stop-opacity:1; stop-color:#05A7E1"/>
   <stop offset="0.380392" style="stop-opacity:1; stop-color:#82D3F0"/>
   <stop offset="1" style="stop-opacity:1; stop-color:white"/>
  </linearGradient>
  <linearGradient id="id1" gradientUnits="userSpaceOnUse" x1="1.75" y1="740.83" x2="13.23" y2="-3730.63">
   <stop offset="0" style="stop-opacity:1; stop-color:red"/>
   <stop offset="0.380392" style="stop-opacity:1; stop-color:#FF7F7F"/>
   <stop offset="1" style="stop-opacity:1; stop-color:white"/>
  </linearGradient>
 </defs>
 <g id="A">
  <metadata id="CorelCorpID_0Corel-Layer"/>
  <path id="A_0" class="fil0" d="M3608.4 1218.11l0 -954.57c0,-87.64 71.45,-159.09 159.09,-159.09 41.37,0 79.02,15.38 112.96,46.14l682.51 682.51 0 -569.56c0,-87.64 71.46,-159.09 159.1,-159.09 87.65,0 159.09,71.44 159.09,159.09l0 954.57c0,87.65 -71.44,159.09 -159.09,159.09 -44.55,0 -82.2,-15.38 -112.96,-46.14l-682.51 -682.51 0 569.56c0,87.65 -71.45,159.09 -159.1,159.09 -87.64,0 -159.09,-71.45 -159.09,-159.09zm-827.29 -397.74l-136.82 -238.64 -138.41 238.64 275.23 0zm-827.29 319.78l552.06 -957.75c31.82,-51.97 77.96,-77.95 138.41,-77.95 60.46,0 106.6,25.98 138.41,77.95l552.06 957.75c12.73,22.27 19.09,48.26 19.09,77.96 0,87.65 -71.44,159.09 -159.09,159.09 -62.58,0 -110.31,-29.17 -143.19,-87.5l-85.91 -151.14 -642.74 0 -87.5 151.14c-32.88,58.33 -80.08,87.5 -141.59,87.5 -87.64,0 -159.1,-71.45 -159.1,-159.09 0,-27.58 6.37,-53.57 19.09,-77.96zm-1315.69 -717.51l-318.19 0 0 238.64 322.96 0c63.18,-2.18 114.55,-56.27 114.55,-119.32 0,-66.24 -53.08,-119.32 -119.32,-119.32zm-636.38 795.47l0 -954.57c0,-87.64 71.45,-159.09 159.09,-159.09l477.29 0c120.91,0 223.79,42.95 308.64,128.86 85.91,83.79 128.87,186.67 128.87,308.65 0,120.91 -41.9,223.26 -125.69,307.05 -85.91,85.91 -187.73,129.39 -305.46,130.46l-324.55 0 0 238.64c0,87.65 -71.45,159.09 -159.1,159.09 -87.64,0 -159.09,-71.45 -159.09,-159.09zm1375.37 -528.23l289.41 0 0 520.03 -289.41 0 0 -520.03zm145.52 387.74c80.37,0 145.52,65.15 145.52,145.52 0,80.37 -65.15,145.52 -145.52,145.52 -80.37,0 -145.52,-65.15 -145.52,-145.52 0,-80.37 65.15,-145.52 145.52,-145.52zm0 -529.17c80.37,0 145.52,65.15 145.52,145.52 0,80.37 -65.15,145.52 -145.52,145.52 -80.37,0 -145.52,-65.15 -145.52,-145.52 0,-80.37 65.15,-145.52 145.52,-145.52zm0 -423.33c80.37,0 145.52,65.15 145.52,145.52 0,80.37 -65.15,145.52 -145.52,145.52 -80.37,0 -145.52,-65.15 -145.52,-145.52 0,-80.37 65.15,-145.52 145.52,-145.52z"/>
  <path id="A_1" class="fil1" d="M7617.56 782.19l0 -518.65c0,-43.48 15.64,-80.87 46.93,-112.16 31.29,-31.29 68.68,-46.93 112.16,-46.93 43.49,0 80.88,15.64 112.16,46.93 31.29,31.29 46.94,68.68 46.94,112.16l0 517.06c0,164.39 -58.34,304.93 -175.01,421.6 -116.67,116.67 -257.2,175 -421.6,175 -164.39,0 -304.93,-58.33 -421.6,-175 -116.66,-116.67 -175,-257.21 -175,-421.6l0 -517.06c0,-43.48 15.65,-80.87 46.93,-112.16 31.29,-31.29 68.68,-46.93 112.17,-46.93 43.48,0 80.87,15.64 112.16,46.93 31.29,31.29 46.93,68.68 46.93,112.16l0 518.65c0,76.36 27.05,142.65 81.14,198.87 56.21,54.09 122.5,81.13 198.87,81.13 78.48,0 143.71,-27.04 195.68,-81.13 54.09,-56.22 81.14,-122.51 81.14,-198.87zm-2100.04 -518.65l0 569.56 682.51 -682.51c30.76,-30.76 68.41,-46.14 112.96,-46.14 43.48,0 80.87,15.64 112.16,46.93 31.29,31.29 46.93,68.68 46.93,112.16 0,44.55 -15.38,82.2 -46.13,112.96l-364.33 364.32 364.33 364.33c30.75,30.76 46.13,68.41 46.13,112.96 0,43.48 -15.64,80.87 -46.93,112.16 -31.29,31.29 -68.68,46.93 -112.16,46.93 -44.55,0 -82.2,-15.38 -112.96,-46.14l-364.32 -364.32 -364.33 364.32c-33.94,30.76 -71.59,46.14 -112.96,46.14 -43.48,0 -80.87,-15.64 -112.16,-46.93 -31.28,-31.29 -46.93,-68.68 -46.93,-112.16l0 -954.57c0,-43.48 15.65,-80.87 46.93,-112.16 31.29,-31.29 68.68,-46.93 112.16,-46.93 43.49,0 80.88,15.64 112.17,46.93 31.28,31.29 46.93,68.68 46.93,112.16z"/>
 </g>
</svg>
